PathFileType	4	(X/Y/Z)	C:\Users\WrightLab\Desktop\Jo\P5V129.trc
DataRate	CameraRate	NumFrames	NumMarkers	Units	OrigDataRate	OrigDataStartFrame	OrigNumFrames
100.00	100.00	       38	19	mm	100.00	84	       671
Frame#	Time	Headset_Front			Headset_Back			Headset_Left			Headset_Right			Left_Shoulder			Right_Shoulder			Sternum			C7			Left Elbow			Right Elbow			Left Wrist			Right Wrist			Left ASIS			Right ASIS			S2			Left Knee			Right Knee			Left Ankle			Right Ankle			
		X1	Y1	Z1	X2	Y2	Z2	X3	Y3	Z3	X4	Y4	Z4	X5	Y5	Z5	X6	Y6	Z6	X7	Y7	Z7	X8	Y8	Z8	X9	Y9	Z9	X10	Y10	Z10	X11	Y11	Z11	X12	Y12	Z12	X13	Y13	Z13	X14	Y14	Z14	X15	Y15	Z15	X16	Y16	Z16	X17	Y17	Z17	X18	Y18	Z18	X19	Y19	Z19	

84	0.830																												-169.63956	1295.59949	1635.22937				-186.02866	1209.18982	1395.88818													-314.25995	537.29871	1787.35815							
85	0.840																												-171.01454	1295.75195	1635.88940				-186.79243	1209.53918	1395.38770													-315.31619	537.64801	1784.89465							
86	0.850																												-171.92801	1296.07178	1635.09229				-187.38467	1210.29688	1395.03735													-316.30048	538.90680	1779.88916							
87	0.860																												-173.25302	1296.28992	1634.65247				-187.43675	1211.52112	1394.68909													-317.89926	538.09509	1779.60107							
88	0.870																												-174.96371	1296.42676	1633.88672				-188.17595	1211.77148	1393.73560													-318.94156	537.92572	1775.16895							
89	0.880																												-176.19859	1296.88953	1632.99255				-188.66893	1211.75171	1393.09595													-320.14389	538.88257	1772.23132							
90	0.890																												-177.20015	1297.21509	1632.51843				-189.31766	1212.17578	1392.64502													-321.57690	538.78088	1769.82349							
91	0.900																												-178.72447	1297.50256	1632.25122				-189.79515	1212.25244	1392.46118													-323.42935	539.55743	1768.02637							
92	0.910																												-180.05690	1297.55786	1631.36072				-190.07227	1212.42261	1392.13977													-325.01459	539.22656	1764.51917							
93	0.920																												-181.30081	1298.00024	1630.47083				-190.26071	1212.55005	1391.69153													-326.99255	538.97900	1763.86426							
94	0.930																												-182.05066	1298.12610	1630.41943				-191.02744	1212.57959	1390.60669													-328.86597	539.38678	1760.80359							
95	0.940																												-183.05013	1298.17993	1629.99890				-192.27162	1212.55786	1389.58215													-331.30991	540.42749	1757.50781							
96	0.950																												-184.31386	1298.45801	1629.88208				-192.94775	1212.31787	1389.07227													-334.23318	539.76807	1754.79333							
97	0.960																												-185.89258	1298.35291	1629.08374				-193.37590	1212.42786	1388.79370													-337.83545	540.65558	1753.11108							
98	0.970																												-186.67650	1298.68335	1628.56067				-193.75578	1212.68579	1388.27185													-342.22778	541.20032	1749.97668							
99	0.980																												-187.71581	1299.11377	1627.54553				-194.05092	1212.66516	1387.88013													-347.22348	540.78375	1749.03308							
100	0.990																												-188.59888	1299.13477	1627.80273				-194.81097	1212.95825	1387.21094													-351.97681	541.59583	1746.90405							
101	1.000																												-189.63321	1299.09741	1626.82788				-195.62315	1212.98328	1386.40234													-356.74710	540.46326	1744.29321							
102	1.010																												-190.57014	1299.07788	1626.66589				-196.29021	1213.41797	1385.61646													-361.95477	539.26587	1746.82874							
103	1.020																												-191.75510	1299.27209	1625.59094				-197.32610	1213.63745	1384.80896													-366.45203	540.00079	1742.56165							
104	1.030																												-192.24367	1300.18225	1624.99182				-197.58540	1213.67786	1384.55798													-370.83670	539.76837	1744.47278							
105	1.040																												-193.49091	1299.72192	1624.33459				-197.72728	1213.69299	1384.07593													-374.87253	538.99200	1741.02197							
106	1.050																												-194.42825	1299.97388	1623.76294				-197.92665	1213.85864	1383.42493													-377.84253	539.70239	1739.61475							
107	1.060																												-195.19176	1300.05969	1623.72009				-198.00592	1213.90845	1383.11536													-379.47559	540.85431	1735.95251							
108	1.070																												-195.93030	1300.32629	1623.64844				-198.42659	1213.82263	1382.10083													-381.06024	540.72998	1736.53748							
109	1.080																												-196.58992	1300.59375	1622.85059				-199.09184	1213.57593	1381.18958													-382.41159	540.33453	1735.84473							
110	1.090																												-198.22366	1300.13867	1620.93689				-199.59457	1213.28467	1380.18311													-382.71448	540.03125	1730.42126							
111	1.100																												-198.84840	1300.46472	1620.65198				-199.88016	1213.23914	1379.85754													-383.11920	539.57312	1730.75928							
112	1.110																												-199.82094	1301.09058	1619.89844				-200.11345	1213.18066	1379.34375													-383.59302	538.81549	1730.10486							
113	1.120																												-200.62254	1301.49268	1619.09692				-200.18536	1213.20886	1378.47839													-383.77527	538.48962	1730.24524							
114	1.130																												-201.01157	1301.86536	1618.88440				-200.58504	1213.20630	1377.98340													-383.75107	537.77209	1730.06958							
115	1.140																												-201.33195	1302.16797	1618.54993				-201.11362	1213.04382	1377.22644													-383.78775	537.57098	1730.08459							
116	1.150																												-202.37123	1302.28845	1617.27686				-201.31177	1212.82690	1376.69373													-383.91367	537.18060	1728.48120							
117	1.160																												-203.29895	1302.32837	1616.28723				-201.89682	1212.25134	1375.95667													-384.08185	536.71411	1727.98328							
118	1.170																												-203.83324	1302.40869	1616.37793				-202.05673	1212.18958	1375.45410													-384.53845	537.15320	1726.76929							
119	1.180																												-204.73138	1301.94983	1616.03711				-202.15324	1212.12000	1375.24646													-385.04913	536.91968	1724.59912							
120	1.190																												-205.22086	1301.86279	1615.79895				-202.23209	1211.54919	1374.95654													-385.85965	536.48761	1725.32080							
121	1.200																												-205.60930	1301.95398	1615.58582				-202.25481	1211.37561	1374.68091													-386.78787	536.06830	1726.15479							
